<svg width="257" height="159" viewBox="0 0 257 159" fill="none" xmlns="http://www.w3.org/2000/svg">
<g filter="url(#filter0_d_241_3602)">
<rect x="11.5493" y="8.66199" width="233.7" height="135.838" rx="5.71744" fill="url(#paint0_linear_241_3602)"/>
<rect x="29.2498" y="94.494" width="70" height="6" rx="3" fill="#7D676C"/>
<rect x="29.2498" y="105.494" width="70" height="6" rx="3" fill="#7D676C"/>
<rect x="29.2498" y="116.494" width="70" height="6" rx="3" fill="#7D676C"/>
<rect x="197.549" y="116.494" width="32" height="6" rx="3" fill="#7D676C"/>
<path d="M38.0094 52.6271C38.4292 51.2301 39.288 50.0056 40.4586 49.1353C41.6293 48.265 43.0492 47.7952 44.5079 47.7956H51.2913C52.7519 47.7951 54.1736 48.266 55.3451 49.1384C56.5165 50.0107 57.3751 51.2378 57.7932 52.6373M32.637 41.0122C32.637 43.0165 33.0317 45.0012 33.7988 46.853C34.5658 48.7047 35.69 50.3873 37.1073 51.8045C38.5246 53.2218 40.2071 54.3461 42.0589 55.1131C43.9106 55.8801 45.8953 56.2749 47.8996 56.2749C49.9039 56.2749 51.8886 55.8801 53.7404 55.1131C55.5921 54.3461 57.2747 53.2218 58.692 51.8045C60.1092 50.3873 61.2335 48.7047 62.0005 46.853C62.7675 45.0012 63.1623 43.0165 63.1623 41.0122C63.1623 39.0079 62.7675 37.0232 62.0005 35.1714C61.2335 33.3197 60.1092 31.6371 58.692 30.2199C57.2747 28.8026 55.5921 27.6784 53.7404 26.9113C51.8886 26.1443 49.9039 25.7495 47.8996 25.7495C45.8953 25.7495 43.9106 26.1443 42.0589 26.9113C40.2071 27.6784 38.5246 28.8026 37.1073 30.2199C35.69 31.6371 34.5658 33.3197 33.7988 35.1714C33.0317 37.0232 32.637 39.0079 32.637 41.0122ZM42.8121 37.6205C42.8121 38.9698 43.3481 40.2638 44.3022 41.2179C45.2563 42.1721 46.5503 42.7081 47.8996 42.7081C49.2489 42.7081 50.543 42.1721 51.4971 41.2179C52.4512 40.2638 52.9872 38.9698 52.9872 37.6205C52.9872 36.2712 52.4512 34.9772 51.4971 34.0231C50.543 33.069 49.2489 32.5329 47.8996 32.5329C46.5503 32.5329 45.2563 33.069 44.3022 34.0231C43.3481 34.9772 42.8121 36.2712 42.8121 37.6205Z" stroke="#7D676C" stroke-width="3.3917" stroke-linecap="round" stroke-linejoin="round"/>
<g clip-path="url(#clip0_241_3602)">
<path d="M229.781 24.6358L223.675 40.086C223.455 40.6438 223.072 41.1225 222.576 41.4599C222.081 41.7974 221.495 41.978 220.895 41.9784H220.6C220.041 41.9782 219.494 41.8216 219.02 41.5263C218.546 41.2309 218.164 40.8088 217.917 40.3075C217.853 40.1759 217.798 40.0397 217.754 39.9001L217.71 39.7253L221.362 31.1362L224.352 24.098C224.407 23.9696 224.498 23.86 224.614 23.783C224.73 23.7059 224.867 23.6646 225.006 23.6643H229.118C229.234 23.6644 229.348 23.6928 229.45 23.747C229.553 23.8011 229.64 23.8795 229.706 23.9752C229.771 24.0709 229.812 24.1811 229.825 24.2962C229.838 24.4113 229.823 24.5279 229.781 24.6358Z" fill="url(#paint1_linear_241_3602)"/>
<path d="M221.362 31.1339L217.71 39.723L216.333 34.1355L220.144 26.9552L221.362 31.1339Z" fill="url(#paint2_linear_241_3602)"/>
<path d="M214.815 36.9975C214.918 36.8106 215.002 36.6489 215.075 36.5064L214.815 36.9975Z" fill="black"/>
<path d="M220.144 26.9552L217.372 32.1791L216.333 34.1355L215.075 36.5064L214.814 36.9975C214.723 37.1615 214.619 37.3432 214.499 37.5451C213.769 38.7842 212.753 39.8311 211.537 40.5986C211.404 40.6818 211.266 40.7628 211.124 40.8416L211.111 40.8486C210.595 41.1319 210.054 41.3649 209.493 41.5443C209.431 41.5644 209.368 41.5836 209.306 41.6018C207.68 40.976 206.214 39.9969 205.012 38.7353C203.81 37.4737 202.904 35.9611 202.357 34.3065C202.668 35.2134 203.254 36.0004 204.034 36.5575C204.814 37.1147 205.749 37.4141 206.708 37.4138C206.748 37.4138 206.788 37.4138 206.828 37.4138C207.726 37.3871 208.584 37.0357 209.242 36.4246C209.508 36.1802 209.738 35.8994 209.926 35.5906L212.843 30.7577L213.57 29.2784L214.324 27.7379L214.611 27.1543L214.931 26.5034L214.935 26.4973L215.887 24.7264C216.077 24.3731 216.368 24.0843 216.723 23.8968C217.078 23.7094 217.48 23.6317 217.879 23.6738C218.278 23.7158 218.656 23.8756 218.964 24.1329C219.271 24.3902 219.496 24.7332 219.608 25.1184L220.144 26.9552Z" fill="url(#paint3_linear_241_3602)"/>
<path d="M212.842 30.7563L209.925 35.5892C209.737 35.898 209.507 36.1789 209.241 36.4232L206.023 28.2794C207.992 27.9059 210.024 28.0248 211.936 28.6257L212.408 29.7405L212.811 30.6895L212.842 30.7563Z" fill="url(#paint4_linear_241_3602)"/>
<path d="M209.306 41.6018C208.462 41.8515 207.587 41.9783 206.708 41.9784C202.179 41.9784 198.418 38.6903 197.681 34.3729C198.659 32.5808 200.073 31.0644 201.793 29.9638C202.903 29.2526 204.123 28.7292 205.404 28.4144C203.488 28.9849 202.093 30.7778 202.114 32.866C202.117 33.326 202.191 33.7828 202.331 34.221C202.34 34.25 202.349 34.279 202.359 34.3075C202.905 35.9615 203.811 37.4738 205.013 38.7352C206.214 39.9966 207.68 40.9757 209.306 41.6018Z" fill="url(#paint5_linear_241_3602)"/>
<path d="M211.936 28.6257C210.024 28.0249 207.992 27.9059 206.023 28.2795V28.2762C205.813 28.3083 205.606 28.3552 205.403 28.4164C203.773 28.8192 202.245 29.5567 200.915 30.5822C199.586 31.6077 198.484 32.8986 197.681 34.3729C197.594 33.8651 197.55 33.3509 197.549 32.8357C197.542 28.5 200.642 24.8419 204.716 23.898C205.394 23.7419 206.089 23.6635 206.785 23.6644H209.355C209.495 23.6647 209.631 23.7059 209.747 23.783C209.863 23.8601 209.955 23.9696 210.009 24.098L211.936 28.6257Z" fill="url(#paint6_linear_241_3602)"/>
</g>
</g>
<defs>
<filter id="filter0_d_241_3602" x="1.33514e-05" y="1.00136e-05" width="256.799" height="158.937" filterUnits="userSpaceOnUse" color-interpolation-filters="sRGB">
<feFlood flood-opacity="0" result="BackgroundImageFix"/>
<feColorMatrix in="SourceAlpha" type="matrix" values="0 0 0 0 0 0 0 0 0 0 0 0 0 0 0 0 0 0 127 0" result="hardAlpha"/>
<feOffset dy="2.88733"/>
<feGaussianBlur stdDeviation="5.77465"/>
<feComposite in2="hardAlpha" operator="out"/>
<feColorMatrix type="matrix" values="0 0 0 0 0 0 0 0 0 0 0 0 0 0 0 0 0 0 0.16 0"/>
<feBlend mode="normal" in2="BackgroundImageFix" result="effect1_dropShadow_241_3602"/>
<feBlend mode="normal" in="SourceGraphic" in2="effect1_dropShadow_241_3602" result="shape"/>
</filter>
<linearGradient id="paint0_linear_241_3602" x1="21.1099" y1="147.013" x2="90.9389" y2="-34.3383" gradientUnits="userSpaceOnUse">
<stop stop-color="#060C27"/>
<stop offset="1" stop-color="#630000"/>
</linearGradient>
<linearGradient id="paint1_linear_241_3602" x1="228.808" y1="43.0534" x2="218.738" y2="30.7608" gradientUnits="userSpaceOnUse">
<stop stop-color="#989898"/>
<stop offset="1" stop-color="white"/>
</linearGradient>
<linearGradient id="paint2_linear_241_3602" x1="220.938" y1="40.4724" x2="214.128" y2="35.5251" gradientUnits="userSpaceOnUse">
<stop stop-color="#989898"/>
<stop offset="1" stop-color="white"/>
</linearGradient>
<linearGradient id="paint3_linear_241_3602" x1="218.645" y1="42.6548" x2="210.176" y2="27.164" gradientUnits="userSpaceOnUse">
<stop stop-color="#989898"/>
<stop offset="1" stop-color="white"/>
</linearGradient>
<linearGradient id="paint4_linear_241_3602" x1="212.267" y1="36.9138" x2="207.947" y2="30.4108" gradientUnits="userSpaceOnUse">
<stop stop-color="#989898"/>
<stop offset="1" stop-color="white"/>
</linearGradient>
<linearGradient id="paint5_linear_241_3602" x1="208.326" y1="42.7746" x2="201.453" y2="31.9081" gradientUnits="userSpaceOnUse">
<stop stop-color="#989898"/>
<stop offset="1" stop-color="white"/>
</linearGradient>
<linearGradient id="paint6_linear_241_3602" x1="210.723" y1="35.0015" x2="206.556" y2="24.6722" gradientUnits="userSpaceOnUse">
<stop stop-color="#989898"/>
<stop offset="1" stop-color="white"/>
</linearGradient>
<clipPath id="clip0_241_3602">
<rect width="32.2817" height="18.3141" fill="white" transform="translate(197.549 23.662)"/>
</clipPath>
</defs>
</svg>
