<svg width="212" height="120" viewBox="0 0 212 120" fill="none" xmlns="http://www.w3.org/2000/svg">
<g clip-path="url(#clip0_135_535)">
<g filter="url(#filter0_i_135_535)">
<path d="M211.19 6.38042L171.184 107.616C169.741 111.27 167.233 114.407 163.985 116.618C160.737 118.829 156.9 120.013 152.971 120.015H151.036C147.376 120.014 143.789 118.988 140.683 117.053C137.576 115.118 135.074 112.351 133.459 109.067C133.036 108.205 132.678 107.313 132.387 106.397L132.103 105.252L156.026 48.9736L175.62 2.8565C175.978 2.01532 176.575 1.29769 177.337 0.792631C178.099 0.287569 178.993 0.0172914 179.907 0.0153198H206.849C207.608 0.0159915 208.355 0.201855 209.026 0.556788C209.697 0.911721 210.272 1.425 210.699 2.05211C211.127 2.67922 211.395 3.40122 211.481 4.15547C211.566 4.90972 211.467 5.67346 211.19 6.38042Z" fill="url(#paint0_linear_135_535)"/>
</g>
<g filter="url(#filter1_i_135_535)">
<path d="M156.026 48.9583L132.103 105.237L123.08 68.6261L148.051 21.5783L156.026 48.9583Z" fill="url(#paint1_linear_135_535)"/>
</g>
<path d="M113.13 87.3785C113.803 86.1539 114.354 85.0946 114.835 84.1608L113.13 87.3785Z" fill="black"/>
<g filter="url(#filter2_i_135_535)">
<path d="M148.051 21.5783L129.883 55.8071L123.077 68.6261L114.832 84.1607L113.127 87.3785C112.53 88.4531 111.847 89.6441 111.06 90.9667C106.276 99.0859 99.6223 105.945 91.6525 110.974C90.779 111.519 89.8758 112.05 88.943 112.566L88.8604 112.612C85.4819 114.469 81.9324 115.995 78.261 117.171C77.8508 117.303 77.4405 117.428 77.0364 117.548C66.382 113.447 56.7708 107.032 48.8968 98.7655C41.0228 90.4992 35.0823 80.5878 31.5041 69.7467C33.5393 75.6885 37.3811 80.8454 42.492 84.496C47.6028 88.1466 53.727 90.1082 60.0077 90.1064C60.271 90.1064 60.5343 90.1064 60.7976 90.1064C66.6814 89.9317 72.3021 87.6288 76.617 83.625C78.3596 82.0238 79.8666 80.1839 81.093 78.16L100.207 46.4937L104.974 36.8006L109.912 26.7065L111.792 22.8825L113.892 18.6177L113.914 18.5779L120.156 6.97437C121.402 4.65919 123.308 2.767 125.632 1.53872C127.956 0.310439 130.594 -0.198361 133.208 0.0770995C135.822 0.35256 138.296 1.39982 140.313 3.08554C142.33 4.77126 143.8 7.01917 144.536 9.54306L148.051 21.5783Z" fill="url(#paint2_linear_135_535)"/>
</g>
<g filter="url(#filter3_i_135_535)">
<path d="M100.201 46.4845L81.0869 78.1508C79.8605 80.1747 78.3535 82.0146 76.6108 83.6158L55.5224 30.2549C68.427 27.8074 81.7364 28.5867 94.2672 32.5236L97.3594 39.8286L100.002 46.0467L100.201 46.4845Z" fill="url(#paint3_linear_135_535)"/>
</g>
<g filter="url(#filter4_i_135_535)">
<path d="M77.0303 117.548C71.5041 119.184 65.771 120.015 60.0077 120.015C30.3345 120.015 5.69466 98.4707 0.860367 70.1814C7.26924 58.4395 16.5357 48.5034 27.8026 41.292C35.0796 36.632 43.0743 33.202 51.4658 31.1397C38.9132 34.8779 29.7712 46.6254 29.9059 60.3077C29.932 63.322 30.4119 66.3151 31.3296 69.1864C31.3908 69.3762 31.452 69.566 31.5163 69.7528C35.0934 80.5909 41.0314 90.5 48.9021 98.7651C56.7728 107.03 66.3799 113.445 77.0303 117.548Z" fill="url(#paint4_linear_135_535)"/>
</g>
<g filter="url(#filter5_i_135_535)">
<path d="M94.2671 32.5236C81.7364 28.5867 68.427 27.8074 55.5224 30.2549V30.2335C54.1493 30.4442 52.7928 30.7511 51.4627 31.152C40.782 33.7912 30.7674 38.6241 22.0557 45.3434C13.344 52.0627 6.12587 60.5214 0.860334 70.1814C0.292185 66.8539 0.00440341 63.4844 1.97553e-05 60.1087C-0.0489661 31.7 20.2618 7.73061 46.956 1.54615C51.4032 0.523012 55.9525 0.00943647 60.5159 0.0153396H77.3548C78.2689 0.0173112 79.1624 0.287589 79.9243 0.792651C80.6863 1.29771 81.2832 2.01534 81.641 2.85652L94.2671 32.5236Z" fill="url(#paint5_linear_135_535)"/>
</g>
</g>
<defs>
<filter id="filter0_i_135_535" x="127.903" y="0.0153198" width="83.6081" height="127.2" filterUnits="userSpaceOnUse" color-interpolation-filters="sRGB">
<feFlood flood-opacity="0" result="BackgroundImageFix"/>
<feBlend mode="normal" in="SourceGraphic" in2="BackgroundImageFix" result="shape"/>
<feColorMatrix in="SourceAlpha" type="matrix" values="0 0 0 0 0 0 0 0 0 0 0 0 0 0 0 0 0 0 127 0" result="hardAlpha"/>
<feOffset dx="-4.2" dy="7.2"/>
<feGaussianBlur stdDeviation="7.2"/>
<feComposite in2="hardAlpha" operator="arithmetic" k2="-1" k3="1"/>
<feColorMatrix type="matrix" values="0 0 0 0 0.347756 0 0 0 0 0.575524 0 0 0 0 1 0 0 0 0.32 0"/>
<feBlend mode="normal" in2="shape" result="effect1_innerShadow_135_535"/>
</filter>
<filter id="filter1_i_135_535" x="123.08" y="15.5783" width="35.346" height="89.6586" filterUnits="userSpaceOnUse" color-interpolation-filters="sRGB">
<feFlood flood-opacity="0" result="BackgroundImageFix"/>
<feBlend mode="normal" in="SourceGraphic" in2="BackgroundImageFix" result="shape"/>
<feColorMatrix in="SourceAlpha" type="matrix" values="0 0 0 0 0 0 0 0 0 0 0 0 0 0 0 0 0 0 127 0" result="hardAlpha"/>
<feOffset dx="2.4" dy="-6"/>
<feGaussianBlur stdDeviation="7.2"/>
<feComposite in2="hardAlpha" operator="arithmetic" k2="-1" k3="1"/>
<feColorMatrix type="matrix" values="0 0 0 0 0.347756 0 0 0 0 0.575524 0 0 0 0 1 0 0 0 0.32 0"/>
<feBlend mode="normal" in2="shape" result="effect1_innerShadow_135_535"/>
</filter>
<filter id="filter2_i_135_535" x="31.5041" y="0.00418091" width="119.546" height="125.943" filterUnits="userSpaceOnUse" color-interpolation-filters="sRGB">
<feFlood flood-opacity="0" result="BackgroundImageFix"/>
<feBlend mode="normal" in="SourceGraphic" in2="BackgroundImageFix" result="shape"/>
<feColorMatrix in="SourceAlpha" type="matrix" values="0 0 0 0 0 0 0 0 0 0 0 0 0 0 0 0 0 0 127 0" result="hardAlpha"/>
<feOffset dx="3" dy="8.4"/>
<feGaussianBlur stdDeviation="7.2"/>
<feComposite in2="hardAlpha" operator="arithmetic" k2="-1" k3="1"/>
<feColorMatrix type="matrix" values="0 0 0 0 0.347756 0 0 0 0 0.575524 0 0 0 0 1 0 0 0 0.32 0"/>
<feBlend mode="normal" in2="shape" result="effect1_innerShadow_135_535"/>
</filter>
<filter id="filter3_i_135_535" x="55.5224" y="22.8588" width="49.4781" height="60.757" filterUnits="userSpaceOnUse" color-interpolation-filters="sRGB">
<feFlood flood-opacity="0" result="BackgroundImageFix"/>
<feBlend mode="normal" in="SourceGraphic" in2="BackgroundImageFix" result="shape"/>
<feColorMatrix in="SourceAlpha" type="matrix" values="0 0 0 0 0 0 0 0 0 0 0 0 0 0 0 0 0 0 127 0" result="hardAlpha"/>
<feOffset dx="4.8" dy="-6"/>
<feGaussianBlur stdDeviation="7.2"/>
<feComposite in2="hardAlpha" operator="arithmetic" k2="-1" k3="1"/>
<feColorMatrix type="matrix" values="0 0 0 0 0.347756 0 0 0 0 0.575524 0 0 0 0 1 0 0 0 0.32 0"/>
<feBlend mode="normal" in2="shape" result="effect1_innerShadow_135_535"/>
</filter>
<filter id="filter4_i_135_535" x="0.860367" y="31.1397" width="80.9699" height="96.0756" filterUnits="userSpaceOnUse" color-interpolation-filters="sRGB">
<feFlood flood-opacity="0" result="BackgroundImageFix"/>
<feBlend mode="normal" in="SourceGraphic" in2="BackgroundImageFix" result="shape"/>
<feColorMatrix in="SourceAlpha" type="matrix" values="0 0 0 0 0 0 0 0 0 0 0 0 0 0 0 0 0 0 127 0" result="hardAlpha"/>
<feOffset dx="4.8" dy="7.2"/>
<feGaussianBlur stdDeviation="7.2"/>
<feComposite in2="hardAlpha" operator="arithmetic" k2="-1" k3="1"/>
<feColorMatrix type="matrix" values="0 0 0 0 0.347756 0 0 0 0 0.575524 0 0 0 0 1 0 0 0 0.32 0"/>
<feBlend mode="normal" in2="shape" result="effect1_innerShadow_135_535"/>
</filter>
<filter id="filter5_i_135_535" x="-1.20007" y="0.0152893" width="95.4672" height="71.3661" filterUnits="userSpaceOnUse" color-interpolation-filters="sRGB">
<feFlood flood-opacity="0" result="BackgroundImageFix"/>
<feBlend mode="normal" in="SourceGraphic" in2="BackgroundImageFix" result="shape"/>
<feColorMatrix in="SourceAlpha" type="matrix" values="0 0 0 0 0 0 0 0 0 0 0 0 0 0 0 0 0 0 127 0" result="hardAlpha"/>
<feOffset dx="-1.2" dy="1.2"/>
<feGaussianBlur stdDeviation="7.2"/>
<feComposite in2="hardAlpha" operator="arithmetic" k2="-1" k3="1"/>
<feColorMatrix type="matrix" values="0 0 0 0 0.347756 0 0 0 0 0.575524 0 0 0 0 1 0 0 0 0.32 0"/>
<feBlend mode="normal" in2="shape" result="effect1_innerShadow_135_535"/>
</filter>
<linearGradient id="paint0_linear_135_535" x1="167.517" y1="8.0501" x2="193.574" y2="112.41" gradientUnits="userSpaceOnUse">
<stop stop-color="#0A2B6A"/>
<stop offset="1" stop-color="#EB0000"/>
</linearGradient>
<linearGradient id="paint1_linear_135_535" x1="146.486" y1="37.2905" x2="126.604" y2="98.9575" gradientUnits="userSpaceOnUse">
<stop stop-color="#C71B1B"/>
<stop offset="1" stop-color="#0A2B6A"/>
</linearGradient>
<linearGradient id="paint2_linear_135_535" x1="83.4811" y1="7.87448" x2="101.088" y2="113.537" gradientUnits="userSpaceOnUse">
<stop stop-color="#0A2B6A"/>
<stop offset="1" stop-color="#EB0000"/>
</linearGradient>
<linearGradient id="paint3_linear_135_535" x1="70.4754" y1="5.78341" x2="99.5974" y2="134.258" gradientUnits="userSpaceOnUse">
<stop stop-color="#C71B1B"/>
<stop offset="1" stop-color="#0A2B6A"/>
</linearGradient>
<linearGradient id="paint4_linear_135_535" x1="70.6101" y1="125.232" x2="25.5768" y2="54.0314" gradientUnits="userSpaceOnUse">
<stop stop-color="#C71B1B"/>
<stop offset="1" stop-color="#0A2B6A"/>
</linearGradient>
<linearGradient id="paint5_linear_135_535" x1="6.97438" y1="43.2178" x2="77.7038" y2="13.5997" gradientUnits="userSpaceOnUse">
<stop stop-color="#EC2020"/>
<stop offset="1" stop-color="#0A2B6A"/>
</linearGradient>
<clipPath id="clip0_135_535">
<rect width="211.521" height="120" fill="white"/>
</clipPath>
</defs>
</svg>
