<svg width="212" height="120" viewBox="0 0 212 120" fill="none" xmlns="http://www.w3.org/2000/svg">
<g clip-path="url(#clip0_135_546)">
<path d="M211.19 6.38042L171.184 107.616C169.741 111.27 167.233 114.407 163.985 116.618C160.737 118.829 156.9 120.013 152.971 120.015H151.036C147.376 120.014 143.789 118.988 140.683 117.053C137.576 115.118 135.074 112.351 133.459 109.067C133.036 108.205 132.678 107.313 132.387 106.397L132.103 105.252L156.026 48.9736L175.62 2.8565C175.978 2.01532 176.575 1.29769 177.337 0.792631C178.099 0.287569 178.993 0.0172914 179.907 0.0153198H206.849C207.608 0.0159915 208.355 0.201855 209.026 0.556788C209.697 0.911721 210.272 1.425 210.699 2.05211C211.127 2.67922 211.395 3.40122 211.481 4.15547C211.566 4.90972 211.467 5.67346 211.19 6.38042Z" fill="url(#paint0_linear_135_546)"/>
<path d="M156.026 48.9583L132.103 105.237L123.08 68.6261L148.051 21.5783L156.026 48.9583Z" fill="url(#paint1_linear_135_546)"/>
<path d="M113.13 87.3785C113.803 86.1539 114.354 85.0946 114.835 84.1608L113.13 87.3785Z" fill="white"/>
<path d="M148.051 21.5783L129.883 55.8071L123.077 68.6261L114.832 84.1607L113.127 87.3785C112.53 88.4531 111.847 89.6441 111.06 90.9667C106.276 99.0859 99.6223 105.945 91.6525 110.974C90.7789 111.519 89.8758 112.05 88.943 112.566L88.8603 112.612C85.4818 114.469 81.9323 115.995 78.261 117.171C77.8507 117.303 77.4405 117.428 77.0364 117.548C66.3819 113.447 56.7708 107.032 48.8968 98.7655C41.0227 90.4992 35.0822 80.5878 31.504 69.7467C33.5393 75.6885 37.3811 80.8454 42.4919 84.496C47.6028 88.1466 53.7269 90.1082 60.0077 90.1064C60.271 90.1064 60.5343 90.1064 60.7976 90.1064C66.6813 89.9317 72.302 87.6288 76.6169 83.625C78.3595 82.0238 79.8665 80.1839 81.093 78.16L100.207 46.4937L104.974 36.8006L109.912 26.7065L111.792 22.8825L113.892 18.6177L113.914 18.5779L120.156 6.97437C121.402 4.65919 123.308 2.767 125.632 1.53872C127.956 0.310439 130.594 -0.198361 133.208 0.0770995C135.822 0.35256 138.296 1.39982 140.313 3.08554C142.33 4.77126 143.8 7.01917 144.536 9.54306L148.051 21.5783Z" fill="url(#paint2_linear_135_546)"/>
<path d="M100.201 46.4845L81.0869 78.1508C79.8605 80.1747 78.3535 82.0146 76.6109 83.6158L55.5225 30.2549C68.427 27.8074 81.7365 28.5867 94.2672 32.5236L97.3594 39.8286L100.002 46.0467L100.201 46.4845Z" fill="url(#paint3_linear_135_546)"/>
<path d="M77.0303 117.548C71.5041 119.184 65.771 120.015 60.0077 120.015C30.3345 120.015 5.69464 98.4707 0.860352 70.1814C7.26923 58.4395 16.5357 48.5034 27.8026 41.292C35.0796 36.632 43.0743 33.202 51.4658 31.1397C38.9132 34.8779 29.7712 46.6254 29.9059 60.3077C29.932 63.322 30.4119 66.3151 31.3295 69.1864C31.3908 69.3762 31.452 69.566 31.5163 69.7528C35.0933 80.5909 41.0314 90.5 48.9021 98.7651C56.7728 107.03 66.3799 113.445 77.0303 117.548Z" fill="url(#paint4_linear_135_546)"/>
<path d="M94.2672 32.5236C81.7364 28.5867 68.427 27.8074 55.5224 30.2549V30.2335C54.1494 30.4442 52.7928 30.7511 51.4627 31.152C40.782 33.7912 30.7674 38.6241 22.0557 45.3434C13.344 52.0627 6.12587 60.5214 0.860341 70.1814C0.292193 66.8539 0.00441104 63.4844 2.73847e-05 60.1087C-0.0489585 31.7 20.2618 7.73061 46.956 1.54615C51.4033 0.523012 55.9525 0.00943647 60.5159 0.0153396H77.3548C78.2689 0.0173112 79.1624 0.287589 79.9243 0.792651C80.6863 1.29771 81.2832 2.01534 81.6411 2.85652L94.2672 32.5236Z" fill="url(#paint5_linear_135_546)"/>
</g>
<defs>
<linearGradient id="paint0_linear_135_546" x1="204.817" y1="127.059" x2="138.838" y2="46.5136" gradientUnits="userSpaceOnUse">
<stop stop-color="#989898"/>
<stop offset="1" stop-color="white"/>
</linearGradient>
<linearGradient id="paint1_linear_135_546" x1="153.249" y1="110.148" x2="108.63" y2="77.7311" gradientUnits="userSpaceOnUse">
<stop stop-color="#989898"/>
<stop offset="1" stop-color="white"/>
</linearGradient>
<linearGradient id="paint2_linear_135_546" x1="138.227" y1="124.447" x2="82.7365" y2="22.9463" gradientUnits="userSpaceOnUse">
<stop stop-color="#989898"/>
<stop offset="1" stop-color="white"/>
</linearGradient>
<linearGradient id="paint3_linear_135_546" x1="96.4348" y1="86.83" x2="68.1271" y2="44.2201" gradientUnits="userSpaceOnUse">
<stop stop-color="#989898"/>
<stop offset="1" stop-color="white"/>
</linearGradient>
<linearGradient id="paint4_linear_135_546" x1="70.6101" y1="125.232" x2="25.5768" y2="54.0314" gradientUnits="userSpaceOnUse">
<stop stop-color="#989898"/>
<stop offset="1" stop-color="white"/>
</linearGradient>
<linearGradient id="paint5_linear_135_546" x1="86.3216" y1="74.3002" x2="59.014" y2="6.61913" gradientUnits="userSpaceOnUse">
<stop stop-color="#989898"/>
<stop offset="1" stop-color="white"/>
</linearGradient>
<clipPath id="clip0_135_546">
<rect width="211.521" height="120" fill="white"/>
</clipPath>
</defs>
</svg>
